<?xml version="1.0" encoding="UTF-8" standalone="no"?>
<!-- Created with Inkscape (http://www.inkscape.org/) -->

<svg
   xmlns:dc="http://purl.org/dc/elements/1.1/"
   xmlns:cc="http://creativecommons.org/ns#"
   xmlns:rdf="http://www.w3.org/1999/02/22-rdf-syntax-ns#"
   xmlns:svg="http://www.w3.org/2000/svg"
   xmlns="http://www.w3.org/2000/svg"
   xmlns:sodipodi="http://sodipodi.sourceforge.net/DTD/sodipodi-0.dtd"
   xmlns:inkscape="http://www.inkscape.org/namespaces/inkscape"
   width="990"
   height="765"
   id="svg2985"
   version="1.1"
   inkscape:version="0.48.4 r9939"
   sodipodi:docname="metaweb.svg">
  <defs
     id="defs2987">
    <inkscape:perspective
       sodipodi:type="inkscape:persp3d"
       inkscape:vp_x="0 : 495 : 1"
       inkscape:vp_y="0 : 1000 : 0"
       inkscape:vp_z="765 : 495 : 1"
       inkscape:persp3d-origin="382.5 : 330 : 1"
       id="perspective5021" />
  </defs>
  <sodipodi:namedview
     inkscape:document-units="in"
     pagecolor="#ffffff"
     bordercolor="#666666"
     borderopacity="1.0"
     inkscape:pageopacity="0.0"
     inkscape:pageshadow="2"
     inkscape:zoom="1.12"
     inkscape:cx="373.8244"
     inkscape:cy="443.45776"
     inkscape:current-layer="layer1"
     id="namedview2989"
     showgrid="false"
     inkscape:window-width="1920"
     inkscape:window-height="1028"
     inkscape:window-x="0"
     inkscape:window-y="0"
     inkscape:window-maximized="1"
     inkscape:snap-grids="false"
     inkscape:snap-to-guides="false"
     units="in">
    <inkscape:grid
       type="xygrid"
       id="grid2994"
       empspacing="5"
       visible="true"
       enabled="true"
       snapvisiblegridlinesonly="true" />
  </sodipodi:namedview>
  <metadata
     id="metadata2991">
    <rdf:RDF>
      <cc:Work
         rdf:about="">
        <dc:format>image/svg+xml</dc:format>
        <dc:type
           rdf:resource="http://purl.org/dc/dcmitype/StillImage" />
        <dc:title />
      </cc:Work>
    </rdf:RDF>
  </metadata>
  <g
     inkscape:label="Layer 1"
     inkscape:groupmode="layer"
     id="layer1"
     transform="translate(0,-225)">
    <path
       style="fill:none;stroke:#000000;stroke-width:1.5;stroke-linecap:butt;stroke-linejoin:miter;stroke-miterlimit:4;stroke-opacity:1;stroke-dasharray:none"
       d="m 123.39285,468.55885 49.99154,39.21743"
       id="path3063"
       inkscape:connector-type="polyline"
       inkscape:connector-curvature="0" />
    <path
       inkscape:connector-curvature="0"
       inkscape:connector-type="polyline"
       id="path3861"
       d="m 173.38439,505.77628 49.99155,43.29044"
       style="fill:none;stroke:#000000;stroke-width:1.5;stroke-linecap:butt;stroke-linejoin:miter;stroke-miterlimit:4;stroke-opacity:1;stroke-dasharray:none" />
    <path
       style="fill:none;stroke:#000000;stroke-width:1.5;stroke-linecap:butt;stroke-linejoin:miter;stroke-miterlimit:4;stroke-opacity:1;stroke-dasharray:none"
       d="m 123.39285,384.05094 49.99154,121.72534"
       id="path3055"
       inkscape:connector-type="polyline"
       inkscape:connector-curvature="0" />
    <path
       style="fill:none;stroke:#000000;stroke-width:1.5;stroke-linecap:butt;stroke-linejoin:miter;stroke-miterlimit:4;stroke-opacity:1;stroke-dasharray:none"
       d="m 123.39285,384.05094 0,82.50791"
       id="path3057"
       inkscape:connector-type="polyline"
       inkscape:connector-curvature="0" />
    <path
       style="fill:none;stroke:#000000;stroke-width:1.5;stroke-linecap:butt;stroke-linejoin:miter;stroke-miterlimit:4;stroke-opacity:1;stroke-dasharray:none"
       d="M 123.39285,466.55885 72.387977,505.77628"
       id="path3059"
       inkscape:connector-type="polyline"
       inkscape:connector-curvature="0" />
    <path
       style="fill:none;stroke:#000000;stroke-width:1.5;stroke-linecap:butt;stroke-linejoin:miter;stroke-miterlimit:4;stroke-opacity:1;stroke-dasharray:none"
       d="m 72.387977,505.77628 51.004873,43.29044"
       id="path3061"
       inkscape:connector-type="polyline"
       inkscape:connector-curvature="0" />
    <path
       style="fill:none;stroke:#000000;stroke-width:1.5;stroke-linecap:butt;stroke-linejoin:miter;stroke-miterlimit:4;stroke-opacity:1;stroke-dasharray:none"
       d="m 173.38439,505.77628 -49.99154,43.29044"
       id="path3065"
       inkscape:connector-type="polyline"
       inkscape:connector-curvature="0" />
    <path
       inkscape:connector-curvature="0"
       inkscape:connector-type="polyline"
       id="path4775"
       d="m 512.3304,412.87757 0,70.5291"
       style="fill:none;stroke:#000000;stroke-width:1.5;stroke-linecap:butt;stroke-linejoin:miter;stroke-miterlimit:4;stroke-opacity:1;stroke-dasharray:none" />
    <path
       inkscape:connector-curvature="0"
       inkscape:connector-type="polyline"
       id="path4779"
       d="m 512.3304,483.40667 -43.5998,33.52369"
       style="fill:none;stroke:#000000;stroke-width:1.5;stroke-linecap:butt;stroke-linejoin:miter;stroke-miterlimit:4;stroke-opacity:1;stroke-dasharray:none" />
    <path
       inkscape:connector-curvature="0"
       inkscape:connector-type="polyline"
       id="path4781"
       d="m 468.7306,516.93036 43.5998,37.00536"
       style="fill:none;stroke:#000000;stroke-width:1.5;stroke-linecap:butt;stroke-linejoin:miter;stroke-miterlimit:4;stroke-opacity:1;stroke-dasharray:none" />
    <path
       inkscape:connector-curvature="0"
       inkscape:connector-type="polyline"
       id="path4785"
       d="M 555.06397,516.93036 512.3304,553.93572"
       style="fill:none;stroke:#000000;stroke-width:1.5;stroke-linecap:butt;stroke-linejoin:miter;stroke-miterlimit:4;stroke-opacity:1;stroke-dasharray:none" />
    <path
       inkscape:connector-curvature="0"
       inkscape:connector-type="polyline"
       id="path4787"
       d="m 512.3304,483.40667 42.73357,33.52369"
       style="fill:none;stroke:#000000;stroke-width:1.5;stroke-linecap:butt;stroke-linejoin:miter;stroke-miterlimit:4;stroke-opacity:1;stroke-dasharray:none" />
    <path
       style="fill:none;stroke:#000000;stroke-width:1.5;stroke-linecap:butt;stroke-linejoin:miter;stroke-miterlimit:4;stroke-opacity:1;stroke-dasharray:none"
       d="m 512.3304,412.87757 42.73357,104.05279"
       id="path4826"
       inkscape:connector-type="polyline"
       inkscape:connector-curvature="0" />
    <path
       style="fill:none;stroke:#000000;stroke-width:1.5;stroke-linecap:butt;stroke-linejoin:miter;stroke-miterlimit:4;stroke-opacity:1;stroke-dasharray:none"
       d="m 514.3304,689.2162 0,70.5291"
       id="path4828"
       inkscape:connector-type="polyline"
       inkscape:connector-curvature="0" />
    <path
       style="fill:none;stroke:#000000;stroke-width:1.5;stroke-linecap:butt;stroke-linejoin:miter;stroke-miterlimit:4;stroke-opacity:1;stroke-dasharray:none"
       d="M 514.3304,759.7453 470.7306,793.269"
       id="path4830"
       inkscape:connector-type="polyline"
       inkscape:connector-curvature="0" />
    <path
       style="fill:none;stroke:#000000;stroke-width:1.5;stroke-linecap:butt;stroke-linejoin:miter;stroke-miterlimit:4;stroke-opacity:1;stroke-dasharray:none"
       d="M 514.3304,830.2744 557.06397,793.269"
       id="path4834"
       inkscape:connector-type="polyline"
       inkscape:connector-curvature="0" />
    <path
       style="fill:none;stroke:#000000;stroke-width:1.5;stroke-linecap:butt;stroke-linejoin:miter;stroke-miterlimit:4;stroke-opacity:1;stroke-dasharray:none"
       d="M 557.06397,793.269 514.3304,759.7453"
       id="path4836"
       inkscape:connector-type="polyline"
       inkscape:connector-curvature="0" />
    <path
       style="fill:none;stroke:#000000;stroke-width:1.5;stroke-linecap:butt;stroke-linejoin:miter;stroke-miterlimit:4;stroke-opacity:1;stroke-dasharray:4.5, 4.5;stroke-dashoffset:0"
       d="M 557.06397,793.269 514.3304,689.2162"
       id="path4838"
       inkscape:connector-type="polyline"
       inkscape:connector-curvature="0" />
    <path
       style="fill:none;stroke:#000000;stroke-width:1.5;stroke-linecap:butt;stroke-linejoin:miter;stroke-miterlimit:4;stroke-opacity:1;stroke-dasharray:none"
       d="M 514.3304,830.2744 470.7306,793.269"
       id="path4840"
       inkscape:connector-type="polyline"
       inkscape:connector-curvature="0" />
    <path
       style="fill:none;stroke:#000000;stroke-width:1.5;stroke-linecap:butt;stroke-linejoin:miter;stroke-miterlimit:4;stroke-opacity:1;stroke-dasharray:none"
       d="m 781.90367,412.87757 0,70.5291"
       id="path4842"
       inkscape:connector-type="polyline"
       inkscape:connector-curvature="0" />
    <path
       style="fill:none;stroke:#000000;stroke-width:1.5;stroke-linecap:butt;stroke-linejoin:miter;stroke-miterlimit:4;stroke-opacity:1;stroke-dasharray:none"
       d="m 781.90367,483.40667 42.73357,33.52369"
       id="path4844"
       inkscape:connector-type="polyline"
       inkscape:connector-curvature="0" />
    <path
       style="fill:none;stroke:#000000;stroke-width:1.5;stroke-linecap:butt;stroke-linejoin:miter;stroke-miterlimit:4;stroke-opacity:1;stroke-dasharray:none"
       d="m 824.63724,516.93036 42.73358,37.00536"
       id="path4846"
       inkscape:connector-type="polyline"
       inkscape:connector-curvature="0" />
    <path
       style="fill:none;stroke:#000000;stroke-width:1.5;stroke-linecap:butt;stroke-linejoin:miter;stroke-miterlimit:4;stroke-opacity:1;stroke-dasharray:none"
       d="M 824.63724,516.93036 781.90367,412.87757"
       id="path4848"
       inkscape:connector-type="polyline"
       inkscape:connector-curvature="0" />
    <path
       style="fill:none;stroke:#000000;stroke-width:1.5;stroke-linecap:butt;stroke-linejoin:miter;stroke-miterlimit:4;stroke-opacity:1;stroke-dasharray:none"
       d="m 807.37082,830.2744 0.11219,-71.13239"
       id="path4852"
       inkscape:connector-type="polyline"
       inkscape:connector-curvature="0" />
    <path
       style="fill:none;stroke:#000000;stroke-width:1.5;stroke-linecap:butt;stroke-linejoin:miter;stroke-miterlimit:4;stroke-opacity:1;stroke-dasharray:none"
       d="M 807.48301,759.14201 774.3481,689.2162"
       id="path4854"
       inkscape:connector-type="polyline"
       inkscape:connector-curvature="0" />
    <path
       style="fill:none;stroke:#000000;stroke-width:1.5;stroke-linecap:butt;stroke-linejoin:miter;stroke-miterlimit:4;stroke-opacity:1;stroke-dasharray:4.5, 4.5;stroke-dashoffset:0"
       d="m 774.3481,689.2162 66.2698,0"
       id="path4856"
       inkscape:connector-type="polyline"
       inkscape:connector-curvature="0" />
    <path
       style="fill:none;stroke:#000000;stroke-width:1.5;stroke-linecap:butt;stroke-linejoin:miter;stroke-miterlimit:4;stroke-opacity:1;stroke-dasharray:none"
       d="M 807.48301,759.14201 840.6179,689.2162"
       id="path4858"
       inkscape:connector-type="polyline"
       inkscape:connector-curvature="0" />
    <rect
       style="opacity:0.43999999;fill:#1f241c;fill-opacity:0.59607843"
       id="rect3186"
       width="52.884617"
       height="113.46154"
       x="755.47803"
       y="388.46429" />
    <path
       style="fill:none;stroke:#e6e6e6;stroke-width:3.5647788;stroke-linecap:butt;stroke-linejoin:miter;stroke-miterlimit:4;stroke-opacity:1;stroke-dasharray:none"
       d="m 668.7088,321.1133 0,564.78437"
       id="path5069"
       inkscape:connector-curvature="0" />
    <g
       id="g3863"
       transform="translate(-259.10715,306.5)">
      <path
         transform="matrix(0.72864109,0,0,0.72864109,167.55087,90.623325)"
         d="m 250,145 c 0,13.80712 -11.19288,25 -25,25 -13.80712,0 -25,-11.19288 -25,-25 0,-13.80712 11.19288,-25 25,-25 13.80712,0 25,11.19288 25,25 z"
         sodipodi:ry="25"
         sodipodi:rx="25"
         sodipodi:cy="145"
         sodipodi:cx="225"
         id="path2996-7"
         style="fill:#b3b3b3;stroke:#000000;stroke-width:1.71552229;stroke-miterlimit:4;stroke-dasharray:none"
         sodipodi:type="arc" />
      <path
         transform="matrix(0.72864109,0,0,0.72864109,268.54729,90.623325)"
         d="m 250,145 c 0,13.80712 -11.19288,25 -25,25 -13.80712,0 -25,-11.19288 -25,-25 0,-13.80712 11.19288,-25 25,-25 13.80712,0 25,11.19288 25,25 z"
         sodipodi:ry="25"
         sodipodi:rx="25"
         sodipodi:cy="145"
         sodipodi:cx="225"
         id="path2996-76"
         style="fill:#b3b3b3;stroke:#000000;stroke-width:1.71552229;stroke-miterlimit:4;stroke-dasharray:none"
         sodipodi:type="arc" />
      <path
         transform="matrix(0.72864109,0,0,0.72864109,218.55575,-31.102023)"
         d="m 250,145 c 0,13.80712 -11.19288,25 -25,25 -13.80712,0 -25,-11.19288 -25,-25 0,-13.80712 11.19288,-25 25,-25 13.80712,0 25,11.19288 25,25 z"
         sodipodi:ry="25"
         sodipodi:rx="25"
         sodipodi:cy="145"
         sodipodi:cx="225"
         id="path2996"
         style="fill:#1a1a1a;stroke:#000000;stroke-width:1.71552229;stroke-miterlimit:4;stroke-dasharray:none"
         sodipodi:type="arc" />
      <path
         inkscape:connector-avoid="true"
         transform="matrix(0.72864109,0,0,0.72864109,218.55575,51.405895)"
         d="m 250,145 c 0,13.80712 -11.19288,25 -25,25 -13.80712,0 -25,-11.19288 -25,-25 0,-13.80712 11.19288,-25 25,-25 13.80712,0 25,11.19288 25,25 z"
         sodipodi:ry="25"
         sodipodi:rx="25"
         sodipodi:cy="145"
         sodipodi:cx="225"
         id="path2996-5"
         style="fill:#666666;stroke:#000000;stroke-width:1.71552229;stroke-miterlimit:4;stroke-dasharray:none"
         sodipodi:type="arc" />
      <path
         transform="matrix(0.72864109,0,0,0.72864109,218.55575,133.91376)"
         d="m 250,145 c 0,13.80712 -11.19288,25 -25,25 -13.80712,0 -25,-11.19288 -25,-25 0,-13.80712 11.19288,-25 25,-25 13.80712,0 25,11.19288 25,25 z"
         sodipodi:ry="25"
         sodipodi:rx="25"
         sodipodi:cy="145"
         sodipodi:cx="225"
         id="path2996-75"
         style="fill:#ffffff;stroke:#000000;stroke-width:1.71552229;stroke-miterlimit:4;stroke-dasharray:none"
         sodipodi:type="arc" />
      <path
         transform="matrix(0.72864109,0,0,0.72864109,318.53884,133.91376)"
         d="m 250,145 c 0,13.80712 -11.19288,25 -25,25 -13.80712,0 -25,-11.19288 -25,-25 0,-13.80712 11.19288,-25 25,-25 13.80712,0 25,11.19288 25,25 z"
         sodipodi:ry="25"
         sodipodi:rx="25"
         sodipodi:cy="145"
         sodipodi:cx="225"
         id="path2996-75-4"
         style="fill:#ffffff;stroke:#000000;stroke-width:1.71552229;stroke-miterlimit:4;stroke-dasharray:none"
         sodipodi:type="arc" />
    </g>
    <text
       xml:space="preserve"
       style="font-size:40px;font-style:normal;font-weight:normal;line-height:125%;letter-spacing:0px;word-spacing:0px;fill:#000000;fill-opacity:1;stroke:none;font-family:Sans"
       x="60.714294"
       y="342.66595"
       id="text3067"
       sodipodi:linespacing="125%"><tspan
         sodipodi:role="line"
         id="tspan3069"
         x="60.714294"
         y="342.66595"
         style="font-size:30px;font-style:normal;font-variant:normal;font-weight:bold;font-stretch:normal;font-family:Droid Sans;-inkscape-font-specification:Droid Sans Bold">metaweb</tspan></text>
    <path
       sodipodi:type="arc"
       style="fill:#b3b3b3;stroke:#000000;stroke-width:2.0068903;stroke-miterlimit:4;stroke-dasharray:none"
       id="path2996-7-2"
       sodipodi:cx="225"
       sodipodi:cy="145"
       sodipodi:rx="25"
       sodipodi:ry="25"
       d="m 250,145 a 25,25 0 1 1 -50,0 25,25 0 1 1 50,0 z"
       transform="matrix(0.62285414,0,0,0.62285414,328.58842,423.61651)" />
    <path
       sodipodi:type="arc"
       style="fill:#b3b3b3;stroke:#000000;stroke-width:2.0068903;stroke-miterlimit:4;stroke-dasharray:none"
       id="path2996-76-5"
       sodipodi:cx="225"
       sodipodi:cy="145"
       sodipodi:rx="25"
       sodipodi:ry="25"
       d="m 250,145 a 25,25 0 1 1 -50,0 25,25 0 1 1 50,0 z"
       transform="matrix(0.62285414,0,0,0.62285414,414.92179,423.61651)" />
    <path
       sodipodi:type="arc"
       style="fill:#1a1a1a;stroke:#000000;stroke-width:2.0068903;stroke-miterlimit:4;stroke-dasharray:none"
       id="path2996-6"
       sodipodi:cx="225"
       sodipodi:cy="145"
       sodipodi:rx="25"
       sodipodi:ry="25"
       d="m 250,145 a 25,25 0 1 1 -50,0 25,25 0 1 1 50,0 z"
       transform="matrix(0.62285414,0,0,0.62285414,372.18821,319.56372)" />
    <path
       sodipodi:type="arc"
       style="fill:#666666;stroke:#000000;stroke-width:2.0068903;stroke-miterlimit:4;stroke-dasharray:none"
       id="path2996-5-9"
       sodipodi:cx="225"
       sodipodi:cy="145"
       sodipodi:rx="25"
       sodipodi:ry="25"
       d="m 250,145 a 25,25 0 1 1 -50,0 25,25 0 1 1 50,0 z"
       transform="matrix(0.62285414,0,0,0.62285414,372.18821,390.09282)"
       inkscape:connector-avoid="true" />
    <path
       sodipodi:type="arc"
       style="fill:#ffffff;stroke:#000000;stroke-width:2.0068903;stroke-miterlimit:4;stroke-dasharray:none"
       id="path2996-75-45"
       sodipodi:cx="225"
       sodipodi:cy="145"
       sodipodi:rx="25"
       sodipodi:ry="25"
       d="m 250,145 a 25,25 0 1 1 -50,0 25,25 0 1 1 50,0 z"
       transform="matrix(0.62285414,0,0,0.62285414,372.18821,460.62187)" />
    <path
       sodipodi:type="arc"
       style="fill:#ffffff;stroke:#000000;stroke-width:2.0068903;stroke-miterlimit:4;stroke-dasharray:6.02067065, 6.02067065;stroke-dashoffset:0"
       id="path2996-75-4-3"
       sodipodi:cx="225"
       sodipodi:cy="145"
       sodipodi:rx="25"
       sodipodi:ry="25"
       d="m 250,145 a 25,25 0 1 1 -50,0 25,25 0 1 1 50,0 z"
       transform="matrix(0.62285414,0,0,0.62285414,457.65537,460.62187)" />
    <path
       sodipodi:type="arc"
       style="fill:#b3b3b3;stroke:#000000;stroke-width:2.0068903;stroke-miterlimit:4;stroke-dasharray:6.02067065, 6.02067065;stroke-dashoffset:0"
       id="path2996-7-0"
       sodipodi:cx="225"
       sodipodi:cy="145"
       sodipodi:rx="25"
       sodipodi:ry="25"
       d="m 250,145 a 25,25 0 1 1 -50,0 25,25 0 1 1 50,0 z"
       transform="matrix(0.62285414,0,0,0.62285414,598.16169,423.61651)" />
    <path
       sodipodi:type="arc"
       style="fill:#b3b3b3;stroke:#000000;stroke-width:2.0068903;stroke-miterlimit:4;stroke-dasharray:none"
       id="path2996-76-59"
       sodipodi:cx="225"
       sodipodi:cy="145"
       sodipodi:rx="25"
       sodipodi:ry="25"
       d="m 250,145 a 25,25 0 1 1 -50,0 25,25 0 1 1 50,0 z"
       transform="matrix(0.62285414,0,0,0.62285414,684.49506,423.61651)" />
    <path
       sodipodi:type="arc"
       style="fill:#1a1a1a;stroke:#000000;stroke-width:2.0068903;stroke-miterlimit:4;stroke-dasharray:none"
       id="path2996-1"
       sodipodi:cx="225"
       sodipodi:cy="145"
       sodipodi:rx="25"
       sodipodi:ry="25"
       d="m 250,145 a 25,25 0 1 1 -50,0 25,25 0 1 1 50,0 z"
       transform="matrix(0.62285414,0,0,0.62285414,641.76149,319.56372)" />
    <path
       sodipodi:type="arc"
       style="fill:#666666;stroke:#000000;stroke-width:2.0068903;stroke-miterlimit:4;stroke-dasharray:none"
       id="path2996-5-4"
       sodipodi:cx="225"
       sodipodi:cy="145"
       sodipodi:rx="25"
       sodipodi:ry="25"
       d="m 250,145 a 25,25 0 1 1 -50,0 25,25 0 1 1 50,0 z"
       transform="matrix(0.62285414,0,0,0.62285414,641.76149,390.09282)"
       inkscape:connector-avoid="true" />
    <path
       sodipodi:type="arc"
       style="fill:#ffffff;stroke:#000000;stroke-width:2.0068903;stroke-miterlimit:4;stroke-dasharray:6.02067065, 6.02067065;stroke-dashoffset:0"
       id="path2996-75-1"
       sodipodi:cx="225"
       sodipodi:cy="145"
       sodipodi:rx="25"
       sodipodi:ry="25"
       d="m 250,145 a 25,25 0 1 1 -50,0 25,25 0 1 1 50,0 z"
       transform="matrix(0.62285414,0,0,0.62285414,641.76149,460.62187)" />
    <path
       sodipodi:type="arc"
       style="fill:#ffffff;stroke:#000000;stroke-width:2.0068903;stroke-miterlimit:4;stroke-dasharray:none"
       id="path2996-75-4-5"
       sodipodi:cx="225"
       sodipodi:cy="145"
       sodipodi:rx="25"
       sodipodi:ry="25"
       d="m 250,145 a 25,25 0 1 1 -50,0 25,25 0 1 1 50,0 z"
       transform="matrix(0.62285414,0,0,0.62285414,727.22864,460.62187)" />
    <path
       sodipodi:type="arc"
       style="fill:#b3b3b3;stroke:#000000;stroke-width:2.0068903;stroke-miterlimit:4;stroke-dasharray:none"
       id="path2996-7-2-8"
       sodipodi:cx="225"
       sodipodi:cy="145"
       sodipodi:rx="25"
       sodipodi:ry="25"
       d="m 250,145 a 25,25 0 1 1 -50,0 25,25 0 1 1 50,0 z"
       transform="matrix(0.62285414,0,0,0.62285414,330.58842,699.95514)" />
    <path
       sodipodi:type="arc"
       style="fill:#b3b3b3;stroke:#000000;stroke-width:2.0068903;stroke-miterlimit:4;stroke-dasharray:none"
       id="path2996-76-5-8"
       sodipodi:cx="225"
       sodipodi:cy="145"
       sodipodi:rx="25"
       sodipodi:ry="25"
       d="m 250,145 a 25,25 0 1 1 -50,0 25,25 0 1 1 50,0 z"
       transform="matrix(0.62285414,0,0,0.62285414,416.92179,699.95514)" />
    <path
       sodipodi:type="arc"
       style="fill:#1a1a1a;stroke:#000000;stroke-width:2.0068903;stroke-miterlimit:4;stroke-dasharray:none"
       id="path2996-6-9"
       sodipodi:cx="225"
       sodipodi:cy="145"
       sodipodi:rx="25"
       sodipodi:ry="25"
       d="m 250,145 a 25,25 0 1 1 -50,0 25,25 0 1 1 50,0 z"
       transform="matrix(0.62285414,0,0,0.62285414,374.18821,595.90235)" />
    <path
       sodipodi:type="arc"
       style="fill:#666666;stroke:#000000;stroke-width:2.0068903;stroke-miterlimit:4;stroke-dasharray:none"
       id="path2996-5-9-6"
       sodipodi:cx="225"
       sodipodi:cy="145"
       sodipodi:rx="25"
       sodipodi:ry="25"
       d="m 250,145 a 25,25 0 1 1 -50,0 25,25 0 1 1 50,0 z"
       transform="matrix(0.62285414,0,0,0.62285414,374.18821,666.43145)"
       inkscape:connector-avoid="true" />
    <path
       sodipodi:type="arc"
       style="fill:#ffffff;stroke:#000000;stroke-width:2.0068903;stroke-miterlimit:4;stroke-dasharray:none"
       id="path2996-75-45-7"
       sodipodi:cx="225"
       sodipodi:cy="145"
       sodipodi:rx="25"
       sodipodi:ry="25"
       d="m 250,145 a 25,25 0 1 1 -50,0 25,25 0 1 1 50,0 z"
       transform="matrix(0.62285414,0,0,0.62285414,374.18821,736.9605)" />
    <path
       sodipodi:type="arc"
       style="fill:#b3b3b3;stroke:#000000;stroke-width:2.0068903;stroke-miterlimit:4;stroke-dasharray:none"
       id="path2996-76-59-8"
       sodipodi:cx="225"
       sodipodi:cy="145"
       sodipodi:rx="25"
       sodipodi:ry="25"
       d="m 250,145 a 25,25 0 1 1 -50,0 25,25 0 1 1 50,0 z"
       transform="matrix(0.62285414,0,0,0.62285414,667.34083,665.82816)" />
    <path
       sodipodi:type="arc"
       style="fill:#1a1a1a;stroke:#000000;stroke-width:2.0068903;stroke-miterlimit:4;stroke-dasharray:none"
       id="path2996-1-1"
       sodipodi:cx="225"
       sodipodi:cy="145"
       sodipodi:rx="25"
       sodipodi:ry="25"
       d="m 250,145 a 25,25 0 1 1 -50,0 25,25 0 1 1 50,0 z"
       transform="matrix(0.62285414,0,0,0.62285414,700.47572,595.90235)" />
    <path
       sodipodi:type="arc"
       style="fill:#666666;stroke:#000000;stroke-width:2.0068903;stroke-miterlimit:4;stroke-dasharray:none"
       id="path2996-5-4-5"
       sodipodi:cx="225"
       sodipodi:cy="145"
       sodipodi:rx="25"
       sodipodi:ry="25"
       d="m 250,145 a 25,25 0 1 1 -50,0 25,25 0 1 1 50,0 z"
       transform="matrix(0.62285414,0,0,0.62285414,634.20592,595.90235)"
       inkscape:connector-avoid="true" />
    <path
       sodipodi:type="arc"
       style="fill:#ffffff;stroke:#000000;stroke-width:2.0068903;stroke-miterlimit:4;stroke-dasharray:none"
       id="path2996-75-4-5-5"
       sodipodi:cx="225"
       sodipodi:cy="145"
       sodipodi:rx="25"
       sodipodi:ry="25"
       d="m 250,145 a 25,25 0 1 1 -50,0 25,25 0 1 1 50,0 z"
       transform="matrix(0.62285414,0,0,0.62285414,667.22864,736.9605)" />
    <rect
       style="color:#000000;fill:#e6e6e6;fill-opacity:1;fill-rule:nonzero;stroke:none;stroke-width:0;marker:none;visibility:visible;display:inline;overflow:visible;enable-background:accumulate"
       id="rect4873"
       width="594.10712"
       height="40"
       x="372.32144"
       y="306.61539" />
    <rect
       style="color:#000000;fill:#e6e6e6;fill-opacity:1;fill-rule:nonzero;stroke:none;stroke-width:0;marker:none;visibility:visible;display:inline;overflow:visible;enable-background:accumulate"
       id="rect4873-9"
       width="595"
       height="40"
       x="373.21429"
       y="599.61536" />
    <text
       xml:space="preserve"
       style="font-size:40px;font-style:normal;font-weight:normal;line-height:125%;letter-spacing:0px;word-spacing:0px;fill:#000000;fill-opacity:1;stroke:none;font-family:Sans"
       x="555.71533"
       y="333.10953"
       id="text4936"
       sodipodi:linespacing="125%"><tspan
         sodipodi:role="line"
         id="tspan4938"
         x="555.71533"
         y="333.10953"
         style="font-size:25px;font-weight:normal;font-family:Droid Sans;-inkscape-font-specification:Droid Sans">local species sorting</tspan></text>
    <text
       xml:space="preserve"
       style="font-size:25px;font-style:normal;font-variant:normal;font-weight:normal;font-stretch:normal;text-indent:0;text-align:start;text-decoration:none;line-height:125%;letter-spacing:0px;word-spacing:0px;text-transform:none;direction:ltr;block-progression:tb;writing-mode:lr-tb;text-anchor:start;baseline-shift:baseline;color:#000000;fill:#000000;fill-opacity:1;fill-rule:nonzero;stroke:none;marker:none;visibility:visible;display:inline;overflow:visible;enable-background:accumulate;font-family:Droid Sans;-inkscape-font-specification:Droid Sans"
       x="537.13275"
       y="626.1095"
       id="text4936-4"
       sodipodi:linespacing="125%"><tspan
         sodipodi:role="line"
         id="tspan4938-7"
         x="537.13275"
         y="626.1095"
         style="font-size:25px;font-style:normal;font-variant:normal;font-weight:normal;font-stretch:normal;text-indent:0;text-align:start;text-decoration:none;line-height:125%;letter-spacing:0px;word-spacing:0px;text-transform:none;direction:ltr;block-progression:tb;writing-mode:lr-tb;text-anchor:start;baseline-shift:baseline;color:#000000;fill:#000000;fill-opacity:1;fill-rule:nonzero;stroke:none;marker:none;visibility:visible;display:inline;overflow:visible;enable-background:accumulate;font-family:Droid Sans;-inkscape-font-specification:Droid Sans">local interaction sorting</tspan></text>
    <rect
       style="color:#000000;fill:none;stroke:#e6e6e6;stroke-width:4.50161505;stroke-miterlimit:4;stroke-dasharray:none;marker:none;visibility:visible;display:inline;overflow:visible;enable-background:accumulate"
       id="rect4873-6"
       width="592.82495"
       height="578.34698"
       x="373.40897"
       y="309.34576" />
    <text
       xml:space="preserve"
       style="font-size:40px;font-style:normal;font-weight:normal;line-height:125%;letter-spacing:0px;word-spacing:0px;fill:#000000;fill-opacity:1;stroke:none;font-family:Sans"
       x="380.94449"
       y="336.88464"
       id="text5073"
       sodipodi:linespacing="125%"><tspan
         sodipodi:role="line"
         id="tspan5075"
         x="380.94449"
         y="336.88464"
         style="font-size:30px;font-style:normal;font-variant:normal;font-weight:bold;font-stretch:normal;font-family:Droid Sans;-inkscape-font-specification:Droid Sans Bold">Site 1</tspan></text>
    <text
       xml:space="preserve"
       style="font-size:40px;font-style:normal;font-weight:normal;line-height:125%;letter-spacing:0px;word-spacing:0px;fill:#000000;fill-opacity:1;stroke:none;font-family:Sans"
       x="957.38074"
       y="335.99179"
       id="text5073-3"
       sodipodi:linespacing="125%"><tspan
         sodipodi:role="line"
         id="tspan5075-0"
         x="957.38074"
         y="335.99179"
         style="font-size:30px;font-style:normal;font-variant:normal;font-weight:bold;font-stretch:normal;text-align:end;text-anchor:end;font-family:Droid Sans;-inkscape-font-specification:Droid Sans Bold">Site 2</tspan></text>
    <text
       xml:space="preserve"
       style="font-size:40px;font-style:normal;font-weight:normal;line-height:125%;letter-spacing:0px;word-spacing:0px;fill:#000000;fill-opacity:1;stroke:none;font-family:Sans"
       x="81.715332"
       y="388.80768"
       id="text3053"
       sodipodi:linespacing="125%"><tspan
         sodipodi:role="line"
         id="tspan3055"
         x="81.715332"
         y="388.80768"
         style="font-size:26px;font-style:normal;font-variant:normal;font-weight:bold;font-stretch:normal;font-family:Aller;-inkscape-font-specification:Aller Bold">A</tspan></text>
    <text
       xml:space="preserve"
       style="font-size:40px;font-style:normal;font-weight:normal;line-height:125%;letter-spacing:0px;word-spacing:0px;fill:#000000;fill-opacity:1;stroke:none;font-family:Sans"
       x="81.676331"
       y="472.27008"
       id="text3053-4"
       sodipodi:linespacing="125%"><tspan
         sodipodi:role="line"
         id="tspan3055-3"
         x="81.676331"
         y="472.27008"
         style="font-size:26px;font-style:normal;font-variant:normal;font-weight:bold;font-stretch:normal;font-family:Aller;-inkscape-font-specification:Aller Bold">B</tspan></text>
    <text
       xml:space="preserve"
       style="font-size:40px;font-style:normal;font-weight:normal;line-height:125%;letter-spacing:0px;word-spacing:0px;fill:#000000;fill-opacity:1;stroke:none;font-family:Sans"
       x="28.675785"
       y="512.65466"
       id="text3053-4-2"
       sodipodi:linespacing="125%"><tspan
         sodipodi:role="line"
         id="tspan3055-3-6"
         x="28.675785"
         y="512.65466"
         style="font-size:26px;font-style:normal;font-variant:normal;font-weight:bold;font-stretch:normal;font-family:Aller;-inkscape-font-specification:Aller Bold">C</tspan></text>
    <text
       xml:space="preserve"
       style="font-size:40px;font-style:normal;font-weight:normal;line-height:125%;letter-spacing:0px;word-spacing:0px;fill:#000000;fill-opacity:1;stroke:none;font-family:Sans"
       x="78.752716"
       y="556.88654"
       id="text3053-4-0"
       sodipodi:linespacing="125%"><tspan
         sodipodi:role="line"
         id="tspan3055-3-9"
         x="78.752716"
         y="556.88654"
         style="font-size:26px;font-style:normal;font-variant:normal;font-weight:bold;font-stretch:normal;font-family:Aller;-inkscape-font-specification:Aller Bold">D</tspan></text>
    <text
       xml:space="preserve"
       style="font-size:40px;font-style:normal;font-weight:normal;line-height:125%;letter-spacing:0px;word-spacing:0px;fill:#000000;fill-opacity:1;stroke:none;font-family:Sans"
       x="204.71425"
       y="512.65466"
       id="text3053-4-09"
       sodipodi:linespacing="125%"><tspan
         sodipodi:role="line"
         id="tspan3055-3-2"
         x="204.71425"
         y="512.65466"
         style="font-size:26px;font-style:normal;font-variant:normal;font-weight:bold;font-stretch:normal;font-family:Aller;-inkscape-font-specification:Aller Bold">E</tspan></text>
    <text
       xml:space="preserve"
       style="font-size:40px;font-style:normal;font-weight:normal;line-height:125%;letter-spacing:0px;word-spacing:0px;fill:#000000;fill-opacity:1;stroke:none;font-family:Sans"
       x="248.94501"
       y="556.80853"
       id="text3053-4-21"
       sodipodi:linespacing="125%"><tspan
         sodipodi:role="line"
         id="tspan3055-3-1"
         x="248.94501"
         y="556.80853"
         style="font-size:26px;font-style:normal;font-variant:normal;font-weight:bold;font-stretch:normal;font-family:Aller;-inkscape-font-specification:Aller Bold">F</tspan></text>
    <text
       xml:space="preserve"
       style="font-size:40px;font-style:normal;font-weight:normal;line-height:125%;letter-spacing:0px;word-spacing:0px;fill:#000000;fill-opacity:1;stroke:none;font-family:Sans"
       x="416.71426"
       y="415.88464"
       id="text3126"
       sodipodi:linespacing="125%"><tspan
         sodipodi:role="line"
         id="tspan3128"
         x="416.71426"
         y="415.88464"
         style="font-size:28px;font-style:normal;font-variant:normal;font-weight:normal;font-stretch:normal;font-family:Droid Serif;-inkscape-font-specification:Droid Serif">P<tspan
   style="font-size:65.00091553%;baseline-shift:sub"
   id="tspan3160">1</tspan>(A)</tspan></text>
    <text
       xml:space="preserve"
       style="font-size:40px;font-style:normal;font-weight:normal;line-height:125%;letter-spacing:0px;word-spacing:0px;fill:#000000;fill-opacity:1;stroke:none;font-family:Sans"
       x="849.99988"
       y="518.75983"
       id="text3126-5"
       sodipodi:linespacing="125%"><tspan
         sodipodi:role="line"
         id="tspan3128-0"
         x="849.99988"
         y="518.75983"
         style="font-size:28px;font-style:normal;font-variant:normal;font-weight:normal;font-stretch:normal;font-family:Droid Serif;-inkscape-font-specification:Droid Serif">P<tspan
   style="font-size:65.00091553%;baseline-shift:sub"
   id="tspan3156">2</tspan>(E)</tspan></text>
    <text
       xml:space="preserve"
       style="font-size:40px;font-style:normal;font-weight:normal;line-height:125%;letter-spacing:0px;word-spacing:0px;fill:#000000;fill-opacity:1;stroke:none;font-family:Sans"
       x="813.65735"
       y="409.48779"
       id="text3126-5-4"
       sodipodi:linespacing="125%"><tspan
         sodipodi:role="line"
         id="tspan3128-0-9"
         x="813.65735"
         y="409.48779"
         style="font-size:28px;font-style:normal;font-variant:normal;font-weight:normal;font-stretch:normal;font-family:Droid Serif;-inkscape-font-specification:Droid Serif">P<tspan
   style="font-size:65.00091553%;baseline-shift:sub"
   id="tspan3156-0">2</tspan>(A∩B)</tspan></text>
    <text
       xml:space="preserve"
       style="font-size:40px;font-style:normal;font-weight:normal;line-height:125%;letter-spacing:0px;word-spacing:0px;fill:#000000;fill-opacity:1;stroke:none;font-family:Sans"
       x="546.54199"
       y="738.22961"
       id="text3126-5-4-5"
       sodipodi:linespacing="125%"><tspan
         sodipodi:role="line"
         id="tspan3128-0-9-7"
         x="546.54199"
         y="738.22961"
         style="font-size:28px;font-style:normal;font-variant:normal;font-weight:normal;font-stretch:normal;font-family:Droid Serif;-inkscape-font-specification:Droid Serif">P<tspan
   style="font-size:65.00091553%;baseline-shift:sub"
   id="tspan3216">1</tspan>(<tspan
   style="font-weight:bold"
   id="tspan3218">L</tspan><tspan
   style="font-size:65.00091553%;baseline-shift:sub"
   id="tspan3224">AE</tspan>)</tspan></text>
    <text
       xml:space="preserve"
       style="font-size:40px;font-style:normal;font-weight:normal;line-height:125%;letter-spacing:0px;word-spacing:0px;fill:#000000;fill-opacity:1;stroke:none;font-family:Sans"
       x="831.39917"
       y="737.37244"
       id="text3126-5-4-7"
       sodipodi:linespacing="125%"><tspan
         sodipodi:role="line"
         id="tspan3128-0-9-3"
         x="831.39917"
         y="737.37244"
         style="font-size:28px;font-style:normal;font-variant:normal;font-weight:normal;font-stretch:normal;font-family:Droid Serif;-inkscape-font-specification:Droid Serif">P<tspan
   style="font-size:65.00091553%;baseline-shift:sub"
   id="tspan3156-0-7">2</tspan>(<tspan
   style="font-weight:bold"
   id="tspan3237">L</tspan><tspan
   style="font-size:65.00091553%;baseline-shift:sub"
   id="tspan3243">AE</tspan>)</tspan></text>
    <text
       xml:space="preserve"
       style="font-size:40px;font-style:normal;font-weight:normal;line-height:125%;letter-spacing:0px;word-spacing:0px;fill:#000000;fill-opacity:1;stroke:none;font-family:Sans"
       x="22.027771"
       y="689.46429"
       id="text3067-0"
       sodipodi:linespacing="125%"><tspan
         sodipodi:role="line"
         id="tspan3069-1"
         x="22.027771"
         y="689.46429"
         style="font-size:30px;font-style:normal;font-variant:normal;font-weight:bold;font-stretch:normal;font-family:Droid Sans;-inkscape-font-specification:Droid Sans Bold">local networks</tspan></text>
    <path
       style="fill:none;stroke:#000000;stroke-width:0.94725704;stroke-linecap:butt;stroke-linejoin:miter;stroke-miterlimit:4;stroke-opacity:1;stroke-dasharray:none"
       d="m 81.791364,732.88441 0,44.53946"
       id="path4828-3"
       inkscape:connector-type="polyline"
       inkscape:connector-curvature="0" />
    <path
       style="fill:none;stroke:#000000;stroke-width:0.94725704;stroke-linecap:butt;stroke-linejoin:miter;stroke-miterlimit:4;stroke-opacity:1;stroke-dasharray:none"
       d="M 81.791364,777.42387 54.257887,798.59424"
       id="path4830-9"
       inkscape:connector-type="polyline"
       inkscape:connector-curvature="0" />
    <path
       style="fill:none;stroke:#000000;stroke-width:0.94725704;stroke-linecap:butt;stroke-linejoin:miter;stroke-miterlimit:4;stroke-opacity:1;stroke-dasharray:none"
       d="M 81.791364,821.96333 108.77781,798.59424"
       id="path4834-9"
       inkscape:connector-type="polyline"
       inkscape:connector-curvature="0" />
    <path
       style="fill:none;stroke:#000000;stroke-width:0.94725704;stroke-linecap:butt;stroke-linejoin:miter;stroke-miterlimit:4;stroke-opacity:1;stroke-dasharray:none"
       d="M 108.77781,798.59424 81.791364,777.42387"
       id="path4836-0"
       inkscape:connector-type="polyline"
       inkscape:connector-curvature="0" />
    <path
       style="fill:none;stroke:#000000;stroke-width:0.94725704;stroke-linecap:butt;stroke-linejoin:miter;stroke-miterlimit:4;stroke-opacity:1;stroke-dasharray:none"
       d="M 81.791364,821.96333 54.257887,798.59424"
       id="path4840-6"
       inkscape:connector-type="polyline"
       inkscape:connector-curvature="0" />
    <path
       sodipodi:type="arc"
       style="fill:#b3b3b3;stroke:#000000;stroke-width:2.0068903;stroke-miterlimit:4;stroke-dasharray:none"
       id="path2996-7-2-8-4"
       sodipodi:cx="225"
       sodipodi:cy="145"
       sodipodi:rx="25"
       sodipodi:ry="25"
       d="m 250,145 a 25,25 0 1 1 -50,0 25,25 0 1 1 50,0 z"
       transform="matrix(0.39333532,0,0,0.39333532,-34.242558,739.6661)" />
    <path
       sodipodi:type="arc"
       style="fill:#b3b3b3;stroke:#000000;stroke-width:2.0068903;stroke-miterlimit:4;stroke-dasharray:none"
       id="path2996-76-5-8-8"
       sodipodi:cx="225"
       sodipodi:cy="145"
       sodipodi:rx="25"
       sodipodi:ry="25"
       d="m 250,145 a 25,25 0 1 1 -50,0 25,25 0 1 1 50,0 z"
       transform="matrix(0.39333532,0,0,0.39333532,20.277371,739.6661)" />
    <path
       sodipodi:type="arc"
       style="fill:#1a1a1a;stroke:#000000;stroke-width:2.0068903;stroke-miterlimit:4;stroke-dasharray:none"
       id="path2996-6-9-2"
       sodipodi:cx="225"
       sodipodi:cy="145"
       sodipodi:rx="25"
       sodipodi:ry="25"
       d="m 250,145 a 25,25 0 1 1 -50,0 25,25 0 1 1 50,0 z"
       transform="matrix(0.39333532,0,0,0.39333532,-6.7090861,673.95627)" />
    <path
       sodipodi:type="arc"
       style="fill:#666666;stroke:#000000;stroke-width:2.0068903;stroke-miterlimit:4;stroke-dasharray:none"
       id="path2996-5-9-6-4"
       sodipodi:cx="225"
       sodipodi:cy="145"
       sodipodi:rx="25"
       sodipodi:ry="25"
       d="m 250,145 a 25,25 0 1 1 -50,0 25,25 0 1 1 50,0 z"
       transform="matrix(0.39333532,0,0,0.39333532,-6.7090861,718.49573)"
       inkscape:connector-avoid="true" />
    <path
       sodipodi:type="arc"
       style="fill:#ffffff;stroke:#000000;stroke-width:2.0068903;stroke-miterlimit:4;stroke-dasharray:none"
       id="path2996-75-45-7-9"
       sodipodi:cx="225"
       sodipodi:cy="145"
       sodipodi:rx="25"
       sodipodi:ry="25"
       d="m 250,145 a 25,25 0 1 1 -50,0 25,25 0 1 1 50,0 z"
       transform="matrix(0.39333532,0,0,0.39333532,-6.7090861,763.03516)" />
    <path
       style="fill:none;stroke:#000000;stroke-width:0.9440583;stroke-linecap:butt;stroke-linejoin:miter;stroke-miterlimit:4;stroke-opacity:1;stroke-dasharray:none"
       d="m 187.71728,821.99146 0.0706,-44.76874"
       id="path4852-2"
       inkscape:connector-type="polyline"
       inkscape:connector-curvature="0" />
    <path
       style="fill:none;stroke:#000000;stroke-width:0.9440583;stroke-linecap:butt;stroke-linejoin:miter;stroke-miterlimit:4;stroke-opacity:1;stroke-dasharray:none"
       d="M 187.78789,777.22272 166.9337,733.21336"
       id="path4854-5"
       inkscape:connector-type="polyline"
       inkscape:connector-curvature="0" />
    <path
       style="fill:none;stroke:#000000;stroke-width:0.9440583;stroke-linecap:butt;stroke-linejoin:miter;stroke-miterlimit:4;stroke-opacity:1;stroke-dasharray:none"
       d="m 187.78789,777.22272 20.85418,-44.00936"
       id="path4858-6"
       inkscape:connector-type="polyline"
       inkscape:connector-curvature="0" />
    <path
       sodipodi:type="arc"
       style="fill:#b3b3b3;stroke:#000000;stroke-width:2.0068903;stroke-miterlimit:4;stroke-dasharray:none"
       id="path2996-76-59-8-7"
       sodipodi:cx="225"
       sodipodi:cy="145"
       sodipodi:rx="25"
       sodipodi:ry="25"
       d="m 250,145 a 25,25 0 1 1 -50,0 25,25 0 1 1 50,0 z"
       transform="matrix(0.39200706,0,0,0.39200706,99.58631,718.49357)" />
    <path
       sodipodi:type="arc"
       style="fill:#1a1a1a;stroke:#000000;stroke-width:2.0068903;stroke-miterlimit:4;stroke-dasharray:none"
       id="path2996-1-1-5"
       sodipodi:cx="225"
       sodipodi:cy="145"
       sodipodi:rx="25"
       sodipodi:ry="25"
       d="m 250,145 a 25,25 0 1 1 -50,0 25,25 0 1 1 50,0 z"
       transform="matrix(0.39200706,0,0,0.39200706,120.44048,674.48422)" />
    <path
       sodipodi:type="arc"
       style="fill:#666666;stroke:#000000;stroke-width:2.0068903;stroke-miterlimit:4;stroke-dasharray:none"
       id="path2996-5-4-5-2"
       sodipodi:cx="225"
       sodipodi:cy="145"
       sodipodi:rx="25"
       sodipodi:ry="25"
       d="m 250,145 a 25,25 0 1 1 -50,0 25,25 0 1 1 50,0 z"
       transform="matrix(0.39200706,0,0,0.39200706,78.73212,674.48422)"
       inkscape:connector-avoid="true" />
    <path
       sodipodi:type="arc"
       style="fill:#ffffff;stroke:#000000;stroke-width:2.0068903;stroke-miterlimit:4;stroke-dasharray:none"
       id="path2996-75-4-5-5-7"
       sodipodi:cx="225"
       sodipodi:cy="145"
       sodipodi:rx="25"
       sodipodi:ry="25"
       d="m 250,145 a 25,25 0 1 1 -50,0 25,25 0 1 1 50,0 z"
       transform="matrix(0.39200706,0,0,0.39200706,99.5157,763.26229)" />
    <path
       sodipodi:type="star"
       style="opacity:0.43999999;fill:#1f241c;fill-opacity:0.59607843"
       id="path3478"
       sodipodi:sides="3"
       sodipodi:cx="-312.5"
       sodipodi:cy="44.464287"
       sodipodi:r1="46.565731"
       sodipodi:r2="23.282866"
       sodipodi:arg1="0"
       sodipodi:arg2="1.0471976"
       inkscape:flatsided="false"
       inkscape:rounded="0"
       inkscape:randomized="0"
       d="m -265.93427,44.464287 -34.9243,20.163553 -34.9243,20.163553 0,-40.327107 0,-40.3271052 34.9243,20.1635532 z"
       transform="matrix(0.38321288,0,0,0.72576142,459.01088,425.18164)"
       inkscape:transform-center-x="-4.4611482" />
    <rect
       style="opacity:0.43999999;fill:#1f241c;fill-opacity:0.59607843"
       id="rect3480"
       width="60.009422"
       height="58.535717"
       x="270.35715"
       y="428.18427" />
    <path
       sodipodi:type="star"
       style="opacity:0.43999999;fill:#1f241c;fill-opacity:0.59607843"
       id="path3478-1"
       sodipodi:sides="3"
       sodipodi:cx="-312.5"
       sodipodi:cy="44.464287"
       sodipodi:r1="46.565731"
       sodipodi:r2="23.282866"
       sodipodi:arg1="0"
       sodipodi:arg2="1.0471976"
       inkscape:flatsided="false"
       inkscape:rounded="0"
       inkscape:randomized="0"
       d="m -265.93427,44.464287 -34.9243,20.163553 -34.9243,20.163553 0,-40.327107 0,-40.3271052 34.9243,20.1635532 z"
       transform="matrix(-0.38321288,0,0,0.72576142,168.82558,733.90809)"
       inkscape:transform-center-x="4.461147" />
    <rect
       style="opacity:0.43999999;fill:#1f241c;fill-opacity:0.59607843"
       id="rect3480-8"
       width="60.009422"
       height="58.535717"
       x="-357.47928"
       y="736.91071"
       transform="scale(-1,1)" />
  </g>
</svg>
