<?xml version="1.0" encoding="UTF-8" standalone="no"?>
<!-- Created with Inkscape (http://www.inkscape.org/) -->

<svg
   xmlns:dc="http://purl.org/dc/elements/1.1/"
   xmlns:cc="http://creativecommons.org/ns#"
   xmlns:rdf="http://www.w3.org/1999/02/22-rdf-syntax-ns#"
   xmlns:svg="http://www.w3.org/2000/svg"
   xmlns="http://www.w3.org/2000/svg"
   xmlns:sodipodi="http://sodipodi.sourceforge.net/DTD/sodipodi-0.dtd"
   xmlns:inkscape="http://www.inkscape.org/namespaces/inkscape"
   id="svg2985"
   version="1.1"
   inkscape:version="0.48.3.1 r9886"
   width="673.22838"
   height="534.19167"
   xml:space="preserve"
   sodipodi:docname="traits.svg"><metadata
     id="metadata2991"><rdf:RDF><cc:Work
         rdf:about=""><dc:format>image/svg+xml</dc:format><dc:type
           rdf:resource="http://purl.org/dc/dcmitype/StillImage" /><dc:title /></cc:Work></rdf:RDF></metadata><defs
     id="defs2989" /><sodipodi:namedview
     pagecolor="#ffffff"
     bordercolor="#666666"
     borderopacity="1"
     objecttolerance="10"
     gridtolerance="10"
     guidetolerance="10"
     inkscape:pageopacity="0"
     inkscape:pageshadow="2"
     inkscape:window-width="1871"
     inkscape:window-height="1056"
     id="namedview2987"
     showgrid="true"
     inkscape:zoom="1.7016365"
     inkscape:cx="314.65146"
     inkscape:cy="238.02693"
     inkscape:window-x="49"
     inkscape:window-y="24"
     inkscape:window-maximized="1"
     inkscape:current-layer="g2993"><inkscape:grid
       type="xygrid"
       id="grid3209" /></sodipodi:namedview><g
     id="g2993"
     inkscape:groupmode="layer"
     inkscape:label="community"
     transform="matrix(1.25,0,0,-1.25,0,534.19167)"><g
       id="g4259"
       transform="translate(28,-4.0000043)"><path
         transform="matrix(0.8,0,0,-0.8,0,427.35334)"
         inkscape:connector-curvature="0"
         id="path4251"
         d="m 85,394.19165 15,95"
         style="fill:none;stroke:#000000;stroke-width:1px;stroke-linecap:butt;stroke-linejoin:miter;stroke-opacity:1" /><path
         transform="matrix(0.8,0,0,-0.8,0,427.35334)"
         inkscape:connector-curvature="0"
         id="path4253"
         d="m 235,484.19165 30,-110"
         style="fill:none;stroke:#000000;stroke-width:1px;stroke-linecap:butt;stroke-linejoin:miter;stroke-opacity:1" /><path
         transform="matrix(0.8,0,0,-0.8,0,427.35334)"
         inkscape:connector-curvature="0"
         id="path4255"
         d="m 265,374.19165 75,45 10,70.00001"
         style="fill:none;stroke:#000000;stroke-width:1px;stroke-linecap:butt;stroke-linejoin:miter;stroke-opacity:1" /><path
         transform="matrix(0.8,0,0,-0.8,0,427.35334)"
         inkscape:connector-curvature="0"
         id="path4257"
         d="m 500,374.19165 -5,55 5,55.00001"
         style="fill:none;stroke:#000000;stroke-width:1px;stroke-linecap:butt;stroke-linejoin:miter;stroke-opacity:1" /></g><path
       style="fill:none;stroke:#000000;stroke-width:1px;stroke-linecap:butt;stroke-linejoin:miter;stroke-opacity:1"
       d="m 400,274.19165 65,-195 120,115 z"
       id="path4176"
       inkscape:connector-curvature="0"
       transform="matrix(0.8,0,0,-0.8,0,427.35334)" /><path
       sodipodi:type="arc"
       style="fill:#000000;fill-opacity:0.12156863;stroke:none"
       id="path3981"
       sodipodi:cx="112.5"
       sodipodi:cy="271.69165"
       sodipodi:rx="82.5"
       sodipodi:ry="32.5"
       d="m 195,271.69165 c 0,17.94925 -36.93651,32.5 -82.5,32.5 -45.563492,0 -82.5,-14.55075 -82.5,-32.5 0,-17.94925 36.936508,-32.5 82.5,-32.5 45.56349,0 82.5,14.55075 82.5,32.5 z"
       transform="matrix(0.8,0,0,-0.8,2,439.35334)" /><path
       sodipodi:type="arc"
       style="fill:#000000;fill-opacity:0.12156863;stroke:none"
       id="path3983"
       sodipodi:cx="105"
       sodipodi:cy="109.19165"
       sodipodi:rx="50"
       sodipodi:ry="55"
       d="m 155,109.19165 c 0,30.37566 -22.38576,55 -50,55 -27.614237,0 -50,-24.62434 -50,-55 0,-30.375661 22.385763,-55 50,-55 27.61424,0 50,24.624339 50,55 z"
       transform="matrix(0.99134989,0.42851533,0.31741876,-0.73433325,-64.318711,353.7632)" /><path
       sodipodi:type="arc"
       style="fill:#000000;fill-opacity:0.12156863;stroke:none"
       id="path3985"
       sodipodi:cx="242.5"
       sodipodi:cy="186.69165"
       sodipodi:rx="72.5"
       sodipodi:ry="47.5"
       d="m 315,186.69165 c 0,26.23353 -32.45936,47.5 -72.5,47.5 -40.04064,0 -72.5,-21.26647 -72.5,-47.5 0,-26.23353 32.45936,-47.5 72.5,-47.5 40.04064,0 72.5,21.26647 72.5,47.5 z"
       transform="matrix(0.6645974,0.25902337,0.31307186,-0.77040196,-39.796083,362.23527)" /><g
       id="g4128"><path
         transform="matrix(0.8,0,0,-0.8,0,427.35334)"
         inkscape:connector-curvature="0"
         id="path4120"
         d="m 55,149.19165 10,110"
         style="fill:none;stroke:#000000;stroke-width:1px;stroke-linecap:butt;stroke-linejoin:miter;stroke-opacity:1" /><path
         transform="matrix(0.8,0,0,-0.8,0,427.35334)"
         inkscape:connector-curvature="0"
         id="path4122"
         d="m 110,169.19165 5,80"
         style="fill:none;stroke:#000000;stroke-width:1px;stroke-linecap:butt;stroke-linejoin:miter;stroke-opacity:1" /><path
         transform="matrix(0.8,0,0,-0.8,0,427.35334)"
         inkscape:connector-curvature="0"
         id="path4124"
         d="m 110,164.19165 80,35 -30,65"
         style="fill:none;stroke:#000000;stroke-width:1px;stroke-linecap:butt;stroke-linejoin:miter;stroke-opacity:1" /><path
         transform="matrix(0.8,0,0,-0.8,0,427.35334)"
         inkscape:connector-curvature="0"
         id="path4126"
         d="m 245,209.19165 -35,-50 -90,-60"
         style="fill:none;stroke:#000000;stroke-width:1px;stroke-linecap:butt;stroke-linejoin:miter;stroke-opacity:1" /></g><rect
       style="fill:none;fill-opacity:1;stroke:#000000;stroke-opacity:1"
       id="rect3211"
       width="248"
       height="248"
       x="12"
       y="-412.00003"
       transform="scale(1,-1)" /><path
       sodipodi:type="star"
       style="fill:#000000;fill-opacity:0;stroke:#000000;stroke-opacity:1"
       id="path3989"
       sodipodi:sides="3"
       sodipodi:cx="130"
       sodipodi:cy="44.19165"
       sodipodi:r1="18.027756"
       sodipodi:r2="9.0138779"
       sodipodi:arg1="-0.52359878"
       sodipodi:arg2="0.52359878"
       inkscape:flatsided="false"
       inkscape:rounded="0"
       inkscape:randomized="0"
       d="M 145.61249,35.177772 137.80625,48.698589 130,62.219406 l -7.80625,-13.520817 -7.80624,-13.520816 15.61249,0 z"
       transform="matrix(0.8,0,0,-0.8,-58.244998,410.95889)"
       inkscape:transform-center-y="4.5069341" /><rect
       style="fill:#000000;fill-opacity:0;stroke:#000000;stroke-opacity:1"
       id="rect4009"
       width="20"
       height="20"
       x="24"
       y="-200.00002"
       transform="scale(1,-1)" /><path
       sodipodi:type="arc"
       style="fill:#000000;fill-opacity:0;stroke:#000000;stroke-opacity:1"
       id="path4011"
       sodipodi:cx="137.5"
       sodipodi:cy="46.69165"
       sodipodi:rx="12.5"
       sodipodi:ry="12.5"
       d="m 150,46.69165 c 0,6.90356 -5.59644,12.5 -12.5,12.5 -6.90356,0 -12.5,-5.59644 -12.5,-12.5 0,-6.903559 5.59644,-12.5 12.5,-12.5 6.90356,0 12.5,5.596441 12.5,12.5 z"
       transform="matrix(0.8,0,0,-0.8,126,355.35334)" /><rect
       style="fill:#000000;fill-opacity:1;stroke:none"
       id="rect4009-7"
       width="20"
       height="20"
       x="44"
       y="-232.00002"
       transform="scale(1,-1)" /><rect
       style="fill:#ff7f2a;fill-opacity:1;stroke:none"
       id="rect4009-7-0"
       width="20"
       height="20"
       x="80"
       y="-240.00002"
       transform="scale(1,-1)" /><rect
       style="fill:#668000;fill-opacity:1;stroke:none"
       id="rect4009-7-4"
       width="20"
       height="20"
       x="116"
       y="-228.00002"
       transform="scale(1,-1)" /><path
       sodipodi:type="arc"
       style="fill:#ff7f2a;fill-opacity:1;stroke:none"
       id="path4011-5"
       sodipodi:cx="137.5"
       sodipodi:cy="46.69165"
       sodipodi:rx="12.5"
       sodipodi:ry="12.5"
       d="m 150,46.69165 c 0,6.90356 -5.59644,12.5 -12.5,12.5 -6.90356,0 -12.5,-5.59644 -12.5,-12.5 0,-6.903559 5.59644,-12.5 12.5,-12.5 6.90356,0 12.5,5.596441 12.5,12.5 z"
       transform="matrix(0.8,0,0,-0.8,58,339.35334)" /><path
       sodipodi:type="arc"
       style="fill:#000000;fill-opacity:1;stroke:none"
       id="path4011-7"
       sodipodi:cx="137.5"
       sodipodi:cy="46.69165"
       sodipodi:rx="12.5"
       sodipodi:ry="12.5"
       d="m 150,46.69165 c 0,6.90356 -5.59644,12.5 -12.5,12.5 -6.90356,0 -12.5,-5.59644 -12.5,-12.5 0,-6.903559 5.59644,-12.5 12.5,-12.5 6.90356,0 12.5,5.596441 12.5,12.5 z"
       transform="matrix(0.8,0,0,-0.8,42,307.35334)" /><path
       sodipodi:type="arc"
       style="fill:#668000;fill-opacity:1;stroke:none"
       id="path4011-54"
       sodipodi:cx="137.5"
       sodipodi:cy="46.69165"
       sodipodi:rx="12.5"
       sodipodi:ry="12.5"
       d="m 150,46.69165 c 0,6.90356 -5.59644,12.5 -12.5,12.5 -6.90356,0 -12.5,-5.59644 -12.5,-12.5 0,-6.903559 5.59644,-12.5 12.5,-12.5 6.90356,0 12.5,5.596441 12.5,12.5 z"
       transform="matrix(0.8,0,0,-0.8,88,297.35334)" /><path
       sodipodi:type="star"
       style="fill:#668000;fill-opacity:1;stroke:none"
       id="path3989-0"
       sodipodi:sides="3"
       sodipodi:cx="130"
       sodipodi:cy="44.19165"
       sodipodi:r1="18.027756"
       sodipodi:r2="9.0138779"
       sodipodi:arg1="-0.52359878"
       sodipodi:arg2="0.52359878"
       inkscape:flatsided="false"
       inkscape:rounded="0"
       inkscape:randomized="0"
       d="M 145.61249,35.177772 137.80625,48.698589 130,62.219406 l -7.80625,-13.520817 -7.80624,-13.520816 15.61249,0 z"
       transform="matrix(0.8,0,0,-0.8,-10.244998,382.95889)"
       inkscape:transform-center-y="-3.6055428" /><path
       sodipodi:type="star"
       style="fill:#000000;fill-opacity:1;stroke:none"
       id="path3989-6"
       sodipodi:sides="3"
       sodipodi:cx="130"
       sodipodi:cy="44.19165"
       sodipodi:r1="18.027756"
       sodipodi:r2="9.0138779"
       sodipodi:arg1="-0.52359878"
       sodipodi:arg2="0.52359878"
       inkscape:flatsided="false"
       inkscape:rounded="0"
       inkscape:randomized="0"
       d="M 145.61249,35.177772 137.80625,48.698589 130,62.219406 l -7.80625,-13.520817 -7.80624,-13.520816 15.61249,0 z"
       transform="matrix(0.8,0,0,-0.8,-60,344.14223)"
       inkscape:transform-center-y="-3.6055428" /><path
       sodipodi:type="star"
       style="fill:#ff7f2a;fill-opacity:1;stroke:none"
       id="path3989-00"
       sodipodi:sides="3"
       sodipodi:cx="130"
       sodipodi:cy="44.19165"
       sodipodi:r1="18.027756"
       sodipodi:r2="9.0138779"
       sodipodi:arg1="-0.52359878"
       sodipodi:arg2="0.52359878"
       inkscape:flatsided="false"
       inkscape:rounded="0"
       inkscape:randomized="0"
       d="M 145.61249,35.177772 137.80625,48.698589 130,62.219406 l -7.80625,-13.520817 -7.80624,-13.520816 15.61249,0 z"
       transform="matrix(0.8,0,0,-0.8,-16,332.14223)"
       inkscape:transform-center-y="-3.6055428" /><rect
       style="fill:none;stroke:#000000;stroke-width:1;stroke-opacity:1"
       id="rect3211-6"
       width="248"
       height="248"
       x="276"
       y="-412.00003"
       transform="scale(1,-1)" /><path
       sodipodi:type="star"
       style="fill:#ffffff;fill-opacity:1;stroke:#000000;stroke-opacity:1"
       id="path3989-64"
       sodipodi:sides="3"
       sodipodi:cx="130"
       sodipodi:cy="44.19165"
       sodipodi:r1="18.027756"
       sodipodi:r2="9.0138779"
       sodipodi:arg1="-0.52359878"
       sodipodi:arg2="0.52359878"
       inkscape:flatsided="false"
       inkscape:rounded="0"
       inkscape:randomized="0"
       d="M 145.61249,35.177772 137.80625,48.698589 130,62.219406 l -7.80625,-13.520817 -7.80624,-13.520816 15.61249,0 z"
       transform="matrix(1.0684353,0,0,-1.0684353,232.42247,409.58519)"
       inkscape:transform-center-y="-4.8153569" /><rect
       style="fill:#ffffff;fill-opacity:1;stroke:#000000;stroke-width:1.33554411000000006;stroke-opacity:1"
       id="rect4009-1"
       width="26.710882"
       height="26.710882"
       x="308.91772"
       y="-222.71089"
       transform="scale(1,-1)" /><path
       sodipodi:type="arc"
       style="fill:#ffffff;fill-opacity:1;stroke:#000000;stroke-opacity:1"
       id="path4011-0"
       sodipodi:cx="137.5"
       sodipodi:cy="46.69165"
       sodipodi:rx="12.5"
       sodipodi:ry="12.5"
       d="m 150,46.69165 c 0,6.90356 -5.59644,12.5 -12.5,12.5 -6.90356,0 -12.5,-5.59644 -12.5,-12.5 0,-6.903559 5.59644,-12.5 12.5,-12.5 6.90356,0 12.5,5.596441 12.5,12.5 z"
       transform="matrix(1.0684353,0,0,-1.0684353,321.09015,323.24246)" /><rect
       style="fill:none;stroke:#000000;stroke-width:1.06402731;stroke-opacity:1"
       id="rect3211-6-1"
       width="512"
       height="136"
       x="12"
       y="-148.00002"
       transform="scale(1,-1)" /><rect
       style="fill:#000000;fill-opacity:1;stroke:none"
       id="rect4009-7-09"
       width="20"
       height="20"
       x="96"
       y="-44.000011"
       transform="scale(1,-1)" /><rect
       style="fill:#ff7f2a;fill-opacity:1;stroke:none"
       id="rect4009-7-0-2"
       width="20"
       height="20"
       x="204"
       y="-48.000011"
       transform="scale(1,-1)" /><rect
       style="fill:#668000;fill-opacity:1;stroke:none"
       id="rect4009-7-4-7"
       width="20"
       height="20"
       x="296"
       y="-44.000011"
       transform="scale(1,-1)" /><path
       sodipodi:type="arc"
       style="fill:#ff7f2a;fill-opacity:1;stroke:none"
       id="path4011-5-6"
       sodipodi:cx="137.5"
       sodipodi:cy="46.69165"
       sodipodi:rx="12.5"
       sodipodi:ry="12.5"
       d="m 150,46.69165 c 0,6.90356 -5.59644,12.5 -12.5,12.5 -6.90356,0 -12.5,-5.59644 -12.5,-12.5 0,-6.903559 5.59644,-12.5 12.5,-12.5 6.90356,0 12.5,5.596441 12.5,12.5 z"
       transform="matrix(0.8,0,0,-0.8,316,117.35334)" /><path
       sodipodi:type="arc"
       style="fill:#000000;fill-opacity:1;stroke:none"
       id="path4011-7-5"
       sodipodi:cx="137.5"
       sodipodi:cy="46.69165"
       sodipodi:rx="12.5"
       sodipodi:ry="12.5"
       d="m 150,46.69165 c 0,6.90356 -5.59644,12.5 -12.5,12.5 -6.90356,0 -12.5,-5.59644 -12.5,-12.5 0,-6.903559 5.59644,-12.5 12.5,-12.5 6.90356,0 12.5,5.596441 12.5,12.5 z"
       transform="matrix(0.8,0,0,-0.8,190,127.35334)" /><path
       sodipodi:type="arc"
       style="fill:#668000;fill-opacity:1;stroke:none"
       id="path4011-54-0"
       sodipodi:cx="137.5"
       sodipodi:cy="46.69165"
       sodipodi:rx="12.5"
       sodipodi:ry="12.5"
       d="m 150,46.69165 c 0,6.90356 -5.59644,12.5 -12.5,12.5 -6.90356,0 -12.5,-5.59644 -12.5,-12.5 0,-6.903559 5.59644,-12.5 12.5,-12.5 6.90356,0 12.5,5.596441 12.5,12.5 z"
       transform="matrix(0.8,0,0,-0.8,320,77.353332)" /><path
       sodipodi:type="star"
       style="fill:#668000;fill-opacity:1;stroke:none"
       id="path3989-0-3"
       sodipodi:sides="3"
       sodipodi:cx="130"
       sodipodi:cy="44.19165"
       sodipodi:r1="18.027756"
       sodipodi:r2="9.0138779"
       sodipodi:arg1="-0.52359878"
       sodipodi:arg2="0.52359878"
       inkscape:flatsided="false"
       inkscape:rounded="0"
       inkscape:randomized="0"
       d="M 145.61249,35.177772 137.80625,48.698589 130,62.219406 l -7.80625,-13.520817 -7.80624,-13.520816 15.61249,0 z"
       transform="matrix(0.8,0,0,-0.8,325.755,158.95889)"
       inkscape:transform-center-y="2.8844387" /><path
       sodipodi:type="star"
       style="fill:#000000;fill-opacity:1;stroke:none"
       id="path3989-6-5"
       sodipodi:sides="3"
       sodipodi:cx="130"
       sodipodi:cy="44.19165"
       sodipodi:r1="18.027756"
       sodipodi:r2="9.0138779"
       sodipodi:arg1="-0.52359878"
       sodipodi:arg2="0.52359878"
       inkscape:flatsided="false"
       inkscape:rounded="0"
       inkscape:randomized="0"
       d="M 145.61249,35.177772 137.80625,48.698589 130,62.219406 l -7.80625,-13.520817 -7.80624,-13.520816 15.61249,0 z"
       transform="matrix(0.8,0,0,-0.8,-6.244998,146.95889)"
       inkscape:transform-center-y="2.8844292" /><path
       sodipodi:type="star"
       style="fill:#ff7f2a;fill-opacity:1;stroke:none"
       id="path3989-00-9"
       sodipodi:sides="3"
       sodipodi:cx="130"
       sodipodi:cy="44.19165"
       sodipodi:r1="18.027756"
       sodipodi:r2="9.0138779"
       sodipodi:arg1="-0.52359878"
       sodipodi:arg2="0.52359878"
       inkscape:flatsided="false"
       inkscape:rounded="0"
       inkscape:randomized="0"
       d="M 145.61249,35.177772 137.80625,48.698589 130,62.219406 l -7.80625,-13.520817 -7.80624,-13.520816 15.61249,0 z"
       transform="matrix(0.8,0,0,-0.8,136,160.14223)"
       inkscape:transform-center-y="2.8844292" /><text
       xml:space="preserve"
       style="font-size:32px;font-style:normal;font-weight:normal;text-align:center;line-height:125%;letter-spacing:0px;word-spacing:0px;writing-mode:lr-tb;text-anchor:middle;fill:#000000;fill-opacity:1;stroke:none;font-family:Sans"
       x="244"
       y="-388.00003"
       id="text3024"
       sodipodi:linespacing="125%"
       transform="scale(1,-1)"><tspan
         sodipodi:role="line"
         id="tspan3026"
         x="244"
         y="-388.00003"
         style="font-size:25.60000038px;font-weight:bold;-inkscape-font-specification:Sans Bold">A</tspan></text>
<text
       xml:space="preserve"
       style="font-size:32px;font-style:normal;font-weight:normal;text-align:center;line-height:125%;letter-spacing:0px;word-spacing:0px;writing-mode:lr-tb;text-anchor:middle;fill:#000000;fill-opacity:1;stroke:none;font-family:Sans"
       x="292"
       y="-388.00003"
       id="text3024-7"
       sodipodi:linespacing="125%"
       transform="scale(1,-1)"><tspan
         sodipodi:role="line"
         id="tspan3026-6"
         x="292"
         y="-388.00003"
         style="font-size:25.60000038px;font-weight:bold;-inkscape-font-specification:Sans Bold">B</tspan></text>
<text
       xml:space="preserve"
       style="font-size:32px;font-style:normal;font-weight:normal;text-align:center;line-height:125%;letter-spacing:0px;word-spacing:0px;writing-mode:lr-tb;text-anchor:middle;fill:#000000;fill-opacity:1;stroke:none;font-family:Sans"
       x="28"
       y="-124.00002"
       id="text3024-6"
       sodipodi:linespacing="125%"
       transform="scale(1,-1)"><tspan
         sodipodi:role="line"
         id="tspan3026-4"
         x="28"
         y="-124.00002"
         style="font-size:25.60000038px;font-weight:bold;-inkscape-font-specification:Sans Bold">C</tspan></text>
</g></svg>