<?xml version="1.0" encoding="UTF-8" standalone="no"?>
<!-- Created with Inkscape (http://www.inkscape.org/) -->

<svg
   xmlns:dc="http://purl.org/dc/elements/1.1/"
   xmlns:cc="http://creativecommons.org/ns#"
   xmlns:rdf="http://www.w3.org/1999/02/22-rdf-syntax-ns#"
   xmlns:svg="http://www.w3.org/2000/svg"
   xmlns="http://www.w3.org/2000/svg"
   xmlns:sodipodi="http://sodipodi.sourceforge.net/DTD/sodipodi-0.dtd"
   xmlns:inkscape="http://www.inkscape.org/namespaces/inkscape"
   id="svg2985"
   version="1.1"
   inkscape:version="0.48.4 r9939"
   width="673.22838"
   height="534.19167"
   xml:space="preserve"
   sodipodi:docname="traits.svg"><metadata
     id="metadata2991"><rdf:RDF><cc:Work
         rdf:about=""><dc:format>image/svg+xml</dc:format><dc:type
           rdf:resource="http://purl.org/dc/dcmitype/StillImage" /><dc:title /></cc:Work></rdf:RDF></metadata><defs
     id="defs2989" /><sodipodi:namedview
     pagecolor="#ffffff"
     bordercolor="#666666"
     borderopacity="1"
     objecttolerance="10"
     gridtolerance="10"
     guidetolerance="10"
     inkscape:pageopacity="0"
     inkscape:pageshadow="2"
     inkscape:window-width="1920"
     inkscape:window-height="1030"
     id="namedview2987"
     showgrid="false"
     inkscape:zoom="1.7016365"
     inkscape:cx="472.4584"
     inkscape:cy="308.54728"
     inkscape:window-x="0"
     inkscape:window-y="0"
     inkscape:window-maximized="1"
     inkscape:current-layer="g2993"
     showguides="true"
     inkscape:guide-bbox="true"><inkscape:grid
       type="xygrid"
       id="grid3209" /></sodipodi:namedview><g
     id="g2993"
     inkscape:groupmode="layer"
     inkscape:label="community"
     transform="matrix(1.25,0,0,-1.25,0,534.19167)"><text
       xml:space="preserve"
       style="font-size:32px;font-style:normal;font-weight:normal;text-align:center;line-height:125%;letter-spacing:0px;word-spacing:0px;writing-mode:lr-tb;text-anchor:middle;fill:#000000;fill-opacity:1;stroke:none;font-family:Sans"
       x="36"
       y="-388.00003"
       id="text3024"
       sodipodi:linespacing="125%"
       transform="scale(1,-1)"><tspan
         sodipodi:role="line"
         id="tspan3026"
         x="36"
         y="-388.00003"
         style="font-size:25.60000038px;font-weight:bold;-inkscape-font-specification:Sans Bold">A</tspan></text>
<text
       xml:space="preserve"
       style="font-size:32px;font-style:normal;font-weight:normal;text-align:center;line-height:125%;letter-spacing:0px;word-spacing:0px;writing-mode:lr-tb;text-anchor:middle;fill:#000000;fill-opacity:1;stroke:none;font-family:Sans"
       x="372"
       y="-388.00003"
       id="text3024-7"
       sodipodi:linespacing="125%"
       transform="scale(1,-1)"><tspan
         sodipodi:role="line"
         id="tspan3026-6"
         x="372"
         y="-388.00003"
         style="font-size:25.60000038px;font-weight:bold;-inkscape-font-specification:Sans Bold">B</tspan></text>
<path
       style="color:#000000;fill:none;stroke:#000000;stroke-width:1.20000005;stroke-linecap:butt;stroke-linejoin:miter;stroke-miterlimit:4;stroke-opacity:1;stroke-dasharray:3.6, 3.6;stroke-dashoffset:0;marker:none;visibility:visible;display:inline;overflow:visible;enable-background:accumulate"
       d="m 138.93326,387.86396 c -53.61747,0 -97.100004,-26.93996 -97.100004,-60.175 0,-33.23504 43.482534,-60.175 97.100004,-60.175 14.86595,0 28.9299,2.07286 41.525,5.775 11.42194,-4.56538 24.59053,-7.2 38.625,-7.2 43.62099,0 78.975,25.17198 78.975,56.2 0,31.02803 -35.35401,56.175 -78.975,56.175 -7.84123,0 -15.39995,-0.83643 -22.55,-2.35 -16.11669,7.37888 -36.02582,11.75 -57.6,11.75 z"
       id="path3848"
       inkscape:connector-curvature="0" /><path
       sodipodi:type="arc"
       style="color:#000000;fill:none;stroke:#000000;stroke-width:1.5;stroke-linecap:butt;stroke-linejoin:miter;stroke-miterlimit:4;stroke-opacity:1;stroke-dasharray:4.5, 4.5;stroke-dashoffset:0;marker:none;visibility:visible;display:inline;overflow:visible;enable-background:accumulate"
       id="path3879"
       sodipodi:cx="152.50026"
       sodipodi:cy="346.43121"
       sodipodi:rx="87.268929"
       sodipodi:ry="66.112823"
       d="m 239.76919,346.43121 a 87.268929,66.112823 0 1 1 -174.537859,0 87.268929,66.112823 0 1 1 174.537859,0 z"
       transform="matrix(0.8,0,0,-0.8,-31.028954,462.14338)" /><path
       sodipodi:type="arc"
       style="color:#000000;fill:none;stroke:#000000;stroke-width:1.5;stroke-linecap:butt;stroke-linejoin:miter;stroke-miterlimit:4;stroke-opacity:1;stroke-dasharray:4.5, 4.5;stroke-dashoffset:0;marker:none;visibility:visible;display:inline;overflow:visible;enable-background:accumulate"
       id="path3881"
       sodipodi:cx="347.60657"
       sodipodi:cy="349.66339"
       sodipodi:rx="66.7005"
       sodipodi:ry="58.766956"
       d="m 414.30707,349.66339 a 66.7005,58.766956 0 1 1 -133.401,0 66.7005,58.766956 0 1 1 133.401,0 z"
       transform="matrix(0.8,0,0,-0.8,-30.088683,470.60582)" /><path
       style="color:#000000;fill:none;stroke:#000000;stroke-width:1.20000005;stroke-linecap:butt;stroke-linejoin:miter;stroke-miterlimit:4;stroke-opacity:1;stroke-dasharray:3.6, 3.6;stroke-dashoffset:0;marker:none;visibility:visible;display:inline;overflow:visible;enable-background:accumulate"
       d="m 212.25634,114.70322 c -19.99996,0 -38.21668,-5.00823 -52,-13.25 -10.14922,5.08867 -22.52671,8.1 -35.9,8.1 -34.403467,0 -62.300003,-19.793012 -62.300003,-44.199996 0,-24.406984 27.896536,-44.2 62.300003,-44.2 11.57106,0 22.39092,2.250592 31.675,6.15 14.16761,-9.856992 34.09565,-16.025 56.225,-16.025 42.97187,0 77.825,23.16364 77.825,51.725 0,28.561368 -34.85313,51.699996 -77.825,51.699996 z"
       id="path3883"
       inkscape:connector-curvature="0" /><path
       sodipodi:type="arc"
       style="color:#000000;fill:#ffffff;stroke:#000000;stroke-width:2.07402349;stroke-linecap:butt;stroke-linejoin:miter;stroke-miterlimit:4;stroke-opacity:1;stroke-dasharray:none;stroke-dashoffset:0;marker:none;visibility:visible;display:inline;overflow:visible;enable-background:accumulate"
       id="path3890"
       sodipodi:cx="129.58115"
       sodipodi:cy="141.92221"
       sodipodi:rx="26.738966"
       sodipodi:ry="26.738966"
       d="m 156.32011,141.92221 a 26.738966,26.738966 0 1 1 -53.47793,0 26.738966,26.738966 0 1 1 53.47793,0 z"
       transform="matrix(0.48215464,0,0,-0.48215464,17.444916,402.69492)" /><path
       sodipodi:type="arc"
       style="color:#000000;fill:#ffffff;stroke:#000000;stroke-width:2.07402349;stroke-linecap:butt;stroke-linejoin:miter;stroke-miterlimit:4;stroke-opacity:1;stroke-dasharray:none;stroke-dashoffset:0;marker:none;visibility:visible;display:inline;overflow:visible;enable-background:accumulate"
       id="path3890-3"
       sodipodi:cx="129.58115"
       sodipodi:cy="141.92221"
       sodipodi:rx="26.738966"
       sodipodi:ry="26.738966"
       d="m 156.32011,141.92221 a 26.738966,26.738966 0 1 1 -53.47793,0 26.738966,26.738966 0 1 1 53.47793,0 z"
       transform="matrix(0.48215464,0,0,-0.48215464,87.495124,373.54651)" /><path
       sodipodi:type="arc"
       style="color:#000000;fill:#ffffff;stroke:#000000;stroke-width:2.07402349;stroke-linecap:butt;stroke-linejoin:miter;stroke-miterlimit:4;stroke-opacity:1;stroke-dasharray:none;stroke-dashoffset:0;marker:none;visibility:visible;display:inline;overflow:visible;enable-background:accumulate"
       id="path3890-5"
       sodipodi:cx="129.58115"
       sodipodi:cy="141.92221"
       sodipodi:rx="26.738966"
       sodipodi:ry="26.738966"
       d="m 156.32011,141.92221 a 26.738966,26.738966 0 1 1 -53.47793,0 26.738966,26.738966 0 1 1 53.47793,0 z"
       transform="matrix(0.48215464,0,0,-0.48215464,176.35076,386.24017)" /><path
       sodipodi:type="arc"
       style="color:#000000;fill:#ffffff;stroke:#000000;stroke-width:2.07402349;stroke-linecap:butt;stroke-linejoin:miter;stroke-miterlimit:4;stroke-opacity:1;stroke-dasharray:none;stroke-dashoffset:0;marker:none;visibility:visible;display:inline;overflow:visible;enable-background:accumulate"
       id="path3890-1"
       sodipodi:cx="129.58115"
       sodipodi:cy="141.92221"
       sodipodi:rx="26.738966"
       sodipodi:ry="26.738966"
       d="m 156.32011,141.92221 a 26.738966,26.738966 0 1 1 -53.47793,0 26.738966,26.738966 0 1 1 53.47793,0 z"
       transform="matrix(0.48215464,0,0,-0.48215464,50.354407,132.36692)" /><path
       sodipodi:type="arc"
       style="color:#000000;fill:#ffffff;stroke:#000000;stroke-width:2.07402349;stroke-linecap:butt;stroke-linejoin:miter;stroke-miterlimit:4;stroke-opacity:1;stroke-dasharray:none;stroke-dashoffset:0;marker:none;visibility:visible;display:inline;overflow:visible;enable-background:accumulate"
       id="path3890-7"
       sodipodi:cx="129.58115"
       sodipodi:cy="141.92221"
       sodipodi:rx="26.738966"
       sodipodi:ry="26.738966"
       d="m 156.32011,141.92221 a 26.738966,26.738966 0 1 1 -53.47793,0 26.738966,26.738966 0 1 1 53.47793,0 z"
       transform="matrix(0.48215464,0,0,-0.48215464,123.69557,143.65017)" /><path
       sodipodi:type="arc"
       style="color:#000000;fill:#ffffff;stroke:#000000;stroke-width:2.07402349;stroke-linecap:butt;stroke-linejoin:miter;stroke-miterlimit:4;stroke-opacity:1;stroke-dasharray:none;stroke-dashoffset:0;marker:none;visibility:visible;display:inline;overflow:visible;enable-background:accumulate"
       id="path3890-8"
       sodipodi:cx="129.58115"
       sodipodi:cy="141.92221"
       sodipodi:rx="26.738966"
       sodipodi:ry="26.738966"
       d="m 156.32011,141.92221 a 26.738966,26.738966 0 1 1 -53.47793,0 26.738966,26.738966 0 1 1 53.47793,0 z"
       transform="matrix(0.48215464,0,0,-0.48215464,194.21592,117.32258)" /><path
       sodipodi:type="arc"
       style="color:#000000;fill:#cccccc;stroke:#000000;stroke-width:2.07402349000000008;stroke-linecap:butt;stroke-linejoin:miter;stroke-miterlimit:4;stroke-opacity:1;stroke-dasharray:none;stroke-dashoffset:0;marker:none;visibility:visible;display:inline;overflow:visible;enable-background:accumulate"
       id="path3890-52"
       sodipodi:cx="129.58115"
       sodipodi:cy="141.92221"
       sodipodi:rx="26.738966"
       sodipodi:ry="26.738966"
       d="m 156.32011,141.92221 a 26.738966,26.738966 0 1 1 -53.47793,0 26.738966,26.738966 0 1 1 53.47793,0 z"
       transform="matrix(0.48215464,0,0,-0.48215464,-7.4722813,251.78138)" /><path
       sodipodi:type="arc"
       style="color:#000000;fill:#cccccc;stroke:#000000;stroke-width:2.07402349000000008;stroke-linecap:butt;stroke-linejoin:miter;stroke-miterlimit:4;stroke-opacity:1;stroke-dasharray:none;stroke-dashoffset:0;marker:none;visibility:visible;display:inline;overflow:visible;enable-background:accumulate"
       id="path3890-52-7"
       sodipodi:cx="129.58115"
       sodipodi:cy="141.92221"
       sodipodi:rx="26.738966"
       sodipodi:ry="26.738966"
       d="m 156.32011,141.92221 a 26.738966,26.738966 0 1 1 -53.47793,0 26.738966,26.738966 0 1 1 53.47793,0 z"
       transform="matrix(0.48215464,0,0,-0.48215464,56.466171,260.71395)" /><path
       sodipodi:type="arc"
       style="color:#000000;fill:#666666;stroke:#000000;stroke-width:2.07402349000000008;stroke-linecap:butt;stroke-linejoin:miter;stroke-miterlimit:4;stroke-opacity:1;stroke-dasharray:none;stroke-dashoffset:0;marker:none;visibility:visible;display:inline;overflow:visible;enable-background:accumulate"
       id="path3890-52-0"
       sodipodi:cx="129.58115"
       sodipodi:cy="141.92221"
       sodipodi:rx="26.738966"
       sodipodi:ry="26.738966"
       d="m 156.32011,141.92221 a 26.738966,26.738966 0 1 1 -53.47793,0 26.738966,26.738966 0 1 1 53.47793,0 z"
       transform="matrix(0.48215464,0,0,-0.48215464,183.87293,256.0126)" /><path
       style="fill:none;stroke:#000000;stroke-width:1px;stroke-linecap:butt;stroke-linejoin:miter;stroke-opacity:1"
       d="M 97.278175,132.26116 71.382995,289.09795"
       id="path3995"
       inkscape:connector-type="polyline"
       inkscape:connector-curvature="0"
       inkscape:connection-start="#path3890"
       inkscape:connection-start-point="d4"
       inkscape:connection-end="#path3890-52"
       inkscape:connection-end-point="d4"
       transform="matrix(0.8,0,0,-0.8,0,427.35334)" /><path
       style="fill:none;stroke:#000000;stroke-width:1px;stroke-linecap:butt;stroke-linejoin:miter;stroke-opacity:1"
       d="M 75.782655,319.50808 134.01538,439.76102"
       id="path3997"
       inkscape:connector-type="polyline"
       inkscape:connector-curvature="0"
       inkscape:connection-start="#path3890-52"
       inkscape:connection-start-point="d4"
       inkscape:connection-end="#path3890-1"
       inkscape:connection-end-point="d4"
       transform="matrix(0.8,0,0,-0.8,0,427.35334)" /><path
       style="fill:none;stroke:#000000;stroke-width:1px;stroke-linecap:butt;stroke-linejoin:miter;stroke-opacity:1"
       d="M 240.32702,425.95547 300.32898,313.92055"
       id="path3999"
       inkscape:connector-type="polyline"
       inkscape:connector-curvature="0"
       inkscape:connection-start="#path3890-7"
       inkscape:connection-start-point="d4"
       inkscape:connection-end="#path3890-52-0"
       inkscape:connection-end-point="d4"
       transform="matrix(0.8,0,0,-0.8,0,427.35334)" /><path
       style="fill:none;stroke:#000000;stroke-width:1px;stroke-linecap:butt;stroke-linejoin:miter;stroke-opacity:1"
       d="m 309.1374,315.78299 10.53164,141.21953"
       id="path4001"
       inkscape:connector-type="polyline"
       inkscape:connector-curvature="0"
       inkscape:connection-start="#path3890-52-0"
       inkscape:connection-start-point="d4"
       inkscape:connection-end="#path3890-8"
       inkscape:connection-end-point="d4"
       transform="matrix(0.8,0,0,-0.8,0,427.35334)" /><path
       style="fill:none;stroke:#000000;stroke-width:1px;stroke-linecap:butt;stroke-linejoin:miter;stroke-opacity:1"
       d="M 307.00952,283.62244 299.46547,153.01608"
       id="path4003"
       inkscape:connector-type="polyline"
       inkscape:connector-curvature="0"
       inkscape:connection-start="#path3890-52-0"
       inkscape:connection-start-point="d4"
       inkscape:connection-end="#path3890-5"
       inkscape:connection-end-point="d4"
       transform="matrix(0.8,0,0,-0.8,0,427.35334)" /><path
       style="fill:none;stroke:#000000;stroke-width:1px;stroke-linecap:butt;stroke-linejoin:miter;stroke-opacity:1"
       d="M 183.19242,168.33657 152.95458,278.29234"
       id="path4005"
       inkscape:connector-type="polyline"
       inkscape:connector-curvature="0"
       inkscape:connection-start="#path3890-3"
       inkscape:connection-start-point="d4"
       inkscape:connection-end="#path3890-52-7"
       inkscape:connection-end-point="d4"
       transform="matrix(0.8,0,0,-0.8,0,427.35334)" /><path
       style="fill:none;stroke:#000000;stroke-width:1px;stroke-linecap:butt;stroke-linejoin:miter;stroke-opacity:1"
       d="M 147.91386,309.93229 141.80724,438.1711"
       id="path4007"
       inkscape:connector-type="polyline"
       inkscape:connector-curvature="0"
       inkscape:connection-start="#path3890-52-7"
       inkscape:connection-start-point="d4"
       inkscape:connection-end="#path3890-1"
       inkscape:connection-end-point="d4"
       transform="matrix(0.8,0,0,-0.8,0,427.35334)" /><path
       style="fill:none;stroke:#000000;stroke-width:1px;stroke-linecap:butt;stroke-linejoin:miter;stroke-opacity:1"
       d="m 156.70743,307.81194 67.98269,118.37545"
       id="path4009"
       inkscape:connector-type="polyline"
       inkscape:connector-curvature="0"
       inkscape:connection-start="#path3890-52-7"
       inkscape:connection-start-point="d4"
       inkscape:connection-end="#path3890-7"
       inkscape:connection-end-point="d4"
       transform="matrix(0.8,0,0,-0.8,0,427.35334)" /><path
       sodipodi:type="arc"
       style="color:#000000;fill:#ffffff;stroke:#000000;stroke-width:2.07402349;stroke-linecap:butt;stroke-linejoin:miter;stroke-miterlimit:4;stroke-opacity:1;stroke-dasharray:none;stroke-dashoffset:0;marker:none;visibility:visible;display:inline;overflow:visible;enable-background:accumulate"
       id="path3890-5-9"
       sodipodi:cx="129.58115"
       sodipodi:cy="141.92221"
       sodipodi:rx="26.738966"
       sodipodi:ry="26.738966"
       d="m 156.32011,141.92221 a 26.738966,26.738966 0 1 1 -53.47793,0 26.738966,26.738966 0 1 1 53.47793,0 z"
       transform="matrix(0.48215464,0,0,-0.48215464,382.58851,395.40491)" /><path
       sodipodi:type="arc"
       style="color:#000000;fill:#ffffff;stroke:#000000;stroke-width:2.07402349;stroke-linecap:butt;stroke-linejoin:miter;stroke-miterlimit:4;stroke-opacity:1;stroke-dasharray:none;stroke-dashoffset:0;marker:none;visibility:visible;display:inline;overflow:visible;enable-background:accumulate"
       id="path3890-7-7"
       sodipodi:cx="129.58115"
       sodipodi:cy="141.92221"
       sodipodi:rx="26.738966"
       sodipodi:ry="26.738966"
       d="m 156.32011,141.92221 a 26.738966,26.738966 0 1 1 -53.47793,0 26.738966,26.738966 0 1 1 53.47793,0 z"
       transform="matrix(0.48215464,0,0,-0.48215464,382.58851,131.41917)" /><path
       sodipodi:type="arc"
       style="color:#000000;fill:#cccccc;stroke:#000000;stroke-width:2.07402349;stroke-linecap:butt;stroke-linejoin:miter;stroke-miterlimit:4;stroke-opacity:1;stroke-dasharray:none;stroke-dashoffset:0;marker:none;visibility:visible;display:inline;overflow:visible;enable-background:accumulate"
       id="path3890-52-7-8"
       sodipodi:cx="129.58115"
       sodipodi:cy="141.92221"
       sodipodi:rx="26.738966"
       sodipodi:ry="26.738966"
       d="m 156.32011,141.92221 a 26.738966,26.738966 0 1 1 -53.47793,0 26.738966,26.738966 0 1 1 53.47793,0 z"
       transform="matrix(0.48215464,0,0,-0.48215464,315.82925,257.18795)" /><path
       sodipodi:type="arc"
       style="color:#000000;fill:#666666;stroke:#000000;stroke-width:2.07402349;stroke-linecap:butt;stroke-linejoin:miter;stroke-miterlimit:4;stroke-opacity:1;stroke-dasharray:none;stroke-dashoffset:0;marker:none;visibility:visible;display:inline;overflow:visible;enable-background:accumulate"
       id="path3890-52-0-0"
       sodipodi:cx="129.58115"
       sodipodi:cy="141.92221"
       sodipodi:rx="26.738966"
       sodipodi:ry="26.738966"
       d="m 156.32011,141.92221 a 26.738966,26.738966 0 1 1 -53.47793,0 26.738966,26.738966 0 1 1 53.47793,0 z"
       transform="matrix(0.48215464,0,0,-0.48215464,443.236,257.18795)" /><path
       style="fill:none;stroke:#000000;stroke-width:1px;stroke-linecap:butt;stroke-linejoin:miter;stroke-opacity:1"
       d="m 479.89489,283.72762 69.4278,-143.74184"
       id="path4038"
       inkscape:connector-type="polyline"
       inkscape:connector-curvature="0"
       inkscape:connection-start="#path3890-52-7-8"
       inkscape:connection-start-point="d4"
       inkscape:connection-end="#path3890-5-9"
       inkscape:connection-end-point="d4"
       transform="matrix(0.8,0,0,-0.8,0,427.35334)" /><path
       style="fill:none;stroke:#000000;stroke-width:1px;stroke-linecap:butt;stroke-linejoin:miter;stroke-opacity:1"
       d="m 562.81022,140.23209 62.85557,143.24923"
       id="path4040"
       inkscape:connector-type="polyline"
       inkscape:connector-curvature="0"
       inkscape:connection-start="#path3890-5-9"
       inkscape:connection-start-point="d4"
       inkscape:connection-end="#path3890-52-0-0"
       inkscape:connection-end-point="d4"
       transform="matrix(0.8,0,0,-0.8,0,427.35334)" /><path
       style="fill:none;stroke:#000000;stroke-width:1px;stroke-linecap:butt;stroke-linejoin:miter;stroke-opacity:1"
       d="M 563.33468,440.93411 625.14134,312.76147"
       id="path4044"
       inkscape:connector-type="polyline"
       inkscape:connector-curvature="0"
       inkscape:connection-start="#path3890-7-7"
       inkscape:connection-start-point="d4"
       inkscape:connection-end="#path3890-52-0-0"
       inkscape:connection-end-point="d4"
       transform="matrix(0.8,0,0,-0.8,0,427.35334)" /><path
       style="fill:none;stroke:#000000;stroke-width:1px;stroke-linecap:butt;stroke-linejoin:miter;stroke-opacity:1"
       d="m 480.44148,312.47949 68.33461,128.7366"
       id="path4046"
       inkscape:connector-type="polyline"
       inkscape:connector-curvature="0"
       inkscape:connection-start="#path3890-52-7-8"
       inkscape:connection-start-point="d4"
       inkscape:connection-end="#path3890-7-7"
       inkscape:connection-end-point="d4"
       transform="matrix(0.8,0,0,-0.8,0,427.35334)" /></g></svg>